<svg width="820" height="639" viewBox="0 0 820 639" fill="none" xmlns="http://www.w3.org/2000/svg">
<path d="M403.589 425.058L403.505 530.393H399.092L399.176 638.662H419.706L419.651 530.393H415.237L415.321 425.058C413.366 425.169 411.41 425.225 409.455 425.225C407.472 425.225 405.544 425.169 403.589 425.058Z" fill="#143980"/>
<path d="M620.987 313.493H515.148C515.26 315.448 515.316 317.404 515.316 319.359C515.316 321.342 515.26 323.269 515.148 325.225H620.987V329.638H728.781V309.107H620.987V313.493Z" fill="#00AB4E"/>
<path d="M303.59 319.359C303.59 315.895 303.757 312.459 304.092 309.079H197.919V313.493H90.125V325.224H197.919V329.638H301.718L304.037 329.191C303.757 325.923 303.59 322.655 303.59 319.359Z" fill="#3F448A"/>
<path d="M636.065 101.537L636.037 101.509L560.59 176.957L568.886 185.253L644.333 109.806L647.462 112.934L724.445 35.9227L709.92 21.3975L632.936 98.409L636.037 101.509L636.065 101.537Z" fill="#4CB648"/>
<path d="M327.693 386.593L251.911 463.241L255.04 466.342L179.564 540.951L187.805 549.303L263.392 474.582L266.52 477.683L340.682 402.682L341.911 400.811C336.716 396.565 331.939 391.788 327.693 386.593Z" fill="#652D90"/>
<path d="M480.043 398.241L554.094 472.375L554.149 472.32L550.993 475.476L628.004 552.404L642.502 537.878L565.49 460.951L562.39 464.051L488.339 389.917C485.741 392.85 482.976 395.615 480.043 398.241Z" fill="#00ADEE"/>
<path d="M342.223 237.571L266.497 160.811L263.368 163.912L187.781 89.3584L179.541 97.7104L255.016 172.124L251.888 175.225L326.246 250.588L327.977 251.733C332.251 246.594 337.028 241.845 342.223 237.571Z" fill="#0082C9"/>
<path d="M339.118 119.75L335.039 121.426L294.229 21.3975L283.363 25.8388L324.174 125.867L320.095 127.543L360.151 225.672C366.185 222.488 372.526 219.89 379.174 217.907L339.118 119.75Z" fill="#00ADEE"/>
<path d="M485.85 516.287L481.743 517.879L520.543 618.689L539.705 611.315L500.906 510.505L496.799 512.097L454.872 415.029C451.352 416.705 447.721 418.158 444.006 419.443L485.85 516.287Z" fill="#0082C9"/>
<path d="M672.668 186.845L674.4 190.868L577.305 232.292L581.886 243.102L678.981 201.678V201.65L680.713 205.728L781.914 162.543L773.87 143.661L672.668 186.845Z" fill="#91C73E"/>
<path d="M208.781 389.889L210.457 394.051L111.574 434.582L116.044 445.448L214.871 404.917L216.491 408.912L315.765 368.66C312.581 362.627 309.983 356.286 308 349.638L208.781 389.889Z" fill="#652D90"/>
<path d="M320.573 510.42L324.652 512.041L280.35 611.343L291.076 616.119L335.573 516.342L339.652 517.962L378.087 420.504C371.467 418.465 365.126 415.783 359.149 412.543L320.573 510.42Z" fill="#3F448A"/>
<path d="M602.948 405.447L601.188 409.498L699.736 452.515L707.921 433.688L609.373 390.671L607.613 394.693L509.205 354.889C507.892 358.604 506.384 362.207 504.68 365.699L602.948 405.447Z" fill="#00A9AA"/>
<path d="M216.547 227.878L214.871 231.956L117.384 190.252L112.775 201.034L210.402 242.822L208.726 246.9L308.307 288.018C310.346 281.398 313.028 275.085 316.268 269.079L216.547 227.878Z" fill="#143980"/>
<path d="M359.425 524.974L363.755 525.784L341.045 631.259L352.525 633.717L375.319 527.935L379.648 528.745L398.894 424.75C391.967 424.052 385.235 422.683 378.755 420.728L359.425 524.974Z" fill="#3F448A"/>
<path d="M616.136 365.282L615.215 369.583L720.439 392.069L724.74 371.985L619.516 349.499L618.594 353.801L514.265 334.304C513.706 338.214 512.98 342.069 512.002 345.812L616.136 365.282Z" fill="#00A9AA"/>
<path d="M202.057 266.788L201.163 271.09L97.4476 250.922L95.2129 262.43L198.789 282.598L197.895 286.9L304.096 308.715C304.795 301.788 306.164 295.056 308.119 288.576L202.057 266.788Z" fill="#3F448A"/>
<path d="M719.143 101.173L630.791 160.056L637.299 169.832L725.652 110.949L728.082 114.608L819.144 53.9378L807.747 36.8428L716.685 97.5134L719.143 101.173Z" fill="#91C73E"/>
<path d="M228.455 431.65L230.829 434.974L144.041 496.343L150.829 505.924L237.645 444.555L240.382 448.41L327.533 386.399C323.204 381.119 319.377 375.393 316.109 369.304L228.455 431.65Z" fill="#841E80"/>
<path d="M522.78 495.617L519.065 497.963L577.864 590.561L595.21 579.556L536.411 486.958L532.696 489.304L473.003 404.024C469.875 406.371 466.606 408.522 463.227 410.533L522.78 495.617Z" fill="#0082C9"/>
<path d="M300.044 136.564L296.385 138.994L237.251 50.3623L227.502 56.8707L286.636 145.502L282.977 147.933L342.502 237.346C347.782 233.017 353.508 229.19 359.597 225.95L300.044 136.564Z" fill="#0082C9"/>
<path d="M379.621 109.749L375.292 110.587L354.928 4.66455L343.42 6.87129L363.783 112.794L359.454 113.631L379.482 217.822C385.962 215.922 392.722 214.61 399.649 213.967L379.621 109.749Z" fill="#00ADEE"/>
<path d="M443.759 527.962L439.569 528.744L459.653 634.834L479.82 631.007L459.737 524.918L455.267 525.756L435.156 422.04C431.385 422.99 427.53 423.716 423.619 424.219L443.759 527.962Z" fill="#143980"/>
<path d="M415.313 213.632V109.805H419.726V0H399.195V109.805H403.609V213.632C405.564 213.52 407.491 213.465 409.475 213.465C411.43 213.465 413.357 213.548 415.313 213.632Z" fill="#00A9AA"/>
<path d="M496.799 126.62L500.906 128.212L539.705 27.4017L520.543 20.0273L481.743 120.838L485.85 122.43L444.006 219.302C447.721 220.587 451.352 222.067 454.872 223.715L496.799 126.62Z" fill="#00AB4E"/>
<path d="M455.398 112.962L455.119 112.878L459.728 113.744L479.811 7.65445L459.644 3.82764L439.56 109.917L443.89 110.728L423.666 214.415C427.577 214.946 431.431 215.672 435.202 216.594L455.398 112.962Z" fill="#00A9AA"/>
<path d="M619.678 284.945L620.516 289.274L724.986 269.134L721.103 248.967L616.634 269.107L617.472 273.436L512.164 293.632C513.114 297.403 513.84 301.257 514.343 305.168L619.678 284.945Z" fill="#00AB4E"/>
<path d="M301.717 329.611L198.002 349.946L198.868 354.332L94.7891 373.857L96.9678 385.393L201.13 365.84L201.968 370.086L307.918 349.304C306.047 342.963 304.734 336.371 304.092 329.583H301.717V329.611Z" fill="#652D90"/>
<path d="M304.063 329.163L301.744 329.61H304.091C304.063 329.47 304.063 329.303 304.063 329.163Z" fill="#652D90"/>
<path d="M537.615 122.011L477.531 210.726L487.224 217.291L547.336 128.575L550.967 131.061L611.806 41.2844L594.794 29.748L533.984 119.525L537.615 122.011Z" fill="#00AB4E"/>
<path d="M340.663 402.71L282.925 490.811L286.613 493.213L225.551 580.336L235.16 587.068L296.417 499.638L300.104 502.04L358.875 412.347C352.954 409.135 347.395 405.364 342.227 401.09L340.663 402.71Z" fill="#652D90"/>
<path d="M341.891 400.84L340.662 402.711L342.226 401.119C342.115 401.035 342.003 400.924 341.891 400.84Z" fill="#652D90"/>
<path d="M580.827 442.097L578.341 445.728L668.034 506.929L679.598 489.974L589.905 428.773L587.419 432.404L500.268 373.772C498.257 377.124 496.05 380.365 493.676 383.465L580.827 442.097Z" fill="#00ADEE"/>
<path d="M326.239 250.616L238.026 192.348L235.596 196.035L148.417 135.42L141.713 145.057L229.116 205.812L226.685 209.471L316.406 268.717C319.647 262.795 323.418 257.209 327.663 252.041L326.239 250.616Z" fill="#143980"/>
<path d="M327.968 251.761L326.236 250.616L327.689 252.097C327.773 251.985 327.856 251.873 327.968 251.761Z" fill="#143980"/>
</svg>
